# Blender v3.0.0 OBJ File: 'Low-Poly_Models.blend'
# www.blender.org
mtllib base_world_terrain_tree_2.mtl
o Cylinder.001
v 0.267643 -0.404747 0.072163
v 0.267643 0.252964 0.072163
v 0.014075 -0.404747 0.276843
v 0.014075 0.252964 0.276843
v -0.258944 -0.404747 0.098936
v -0.258944 0.252964 0.098936
v -0.174112 -0.404747 -0.215698
v -0.174112 0.252964 -0.215698
v 0.151337 -0.404747 -0.232244
v 0.151337 0.252964 -0.232244
v 0.050948 0.023734 1.001185
v 0.967959 0.090974 0.260972
v -0.936408 0.090974 0.357794
v -0.629617 0.090974 -0.780056
v 0.547346 0.023734 -0.839895
v 0.281013 3.055240 0.132804
v 0.416996 3.022929 0.019983
v 0.134599 3.090029 0.034740
v 0.180093 3.079219 -0.138688
v 0.354623 3.037749 -0.147808
v 0.065575 0.730819 0.643360
v 0.048473 1.338723 0.509790
v 0.080513 1.944653 0.376219
v 0.141233 2.550423 0.242649
v -0.091582 2.605742 0.086716
v -0.288550 1.982739 0.134450
v -0.453445 1.367601 0.182184
v -0.568875 0.736313 0.229918
v 0.384548 0.728057 -0.539716
v 0.300815 1.324205 -0.427663
v 0.266062 1.925505 -0.315611
v 0.258283 2.522611 -0.203558
v 0.357462 2.499046 0.063250
v 0.423282 1.909280 0.098067
v 0.514632 1.311902 0.132883
v 0.654823 0.725717 0.167700
v -0.019242 2.588552 -0.189056
v -0.173874 1.970905 -0.293125
v -0.297489 1.358628 -0.397194
v -0.371739 0.734606 -0.501263
v 0.124476 2.451464 0.364513
v 0.300594 2.409618 -0.306871
v -0.237539 2.551434 0.096696
v 0.465492 2.440105 0.094581
v -0.101313 2.574782 -0.285050
v 0.079376 1.838795 0.553633
v -0.456552 1.964346 0.197852
v 0.352424 1.810617 -0.464443
v 0.590957 1.856246 0.144312
v -0.287800 1.946931 -0.431354
v 0.052977 1.240070 0.709633
v -0.641707 1.349647 0.253602
v 0.404240 1.219860 -0.595312
v 0.705866 1.272114 0.184975
v -0.425890 1.314984 -0.552898
v 0.077983 0.619751 0.905918
v -0.815315 0.636135 0.323749
v 0.527199 0.623807 -0.759976
v 0.908381 0.690641 0.236140
v -0.537125 0.703157 -0.705831
v 0.226202 -0.095566 0.060989
v 0.011896 -0.095566 0.233978
v -0.218850 -0.095566 0.083617
v -0.147153 -0.095566 -0.182300
v 0.127905 -0.095566 -0.196284
v 0.487717 3.479093 0.068673
v 0.534930 3.467875 0.029501
v 0.436881 3.491172 0.034625
v 0.452677 3.487419 -0.025590
v 0.513274 3.473021 -0.028756
v 0.084454 2.199675 0.413089
v 0.287115 2.170054 -0.346540
v -0.313321 2.295027 0.147626
v 0.464160 2.181391 0.107677
v -0.188070 2.276721 -0.321851
v -0.447055 1.989411 0.194467
v 0.582305 1.881328 0.141843
v -0.281226 1.972000 -0.423974
v 0.079588 1.865916 0.544161
v 0.347905 1.837742 -0.456497
v 0.080918 1.869254 0.571069
v 0.362486 1.839561 -0.479070
v -0.471736 1.998882 0.204083
v 0.608464 1.884967 0.148857
v -0.297717 1.980530 -0.444939
v 0.128285 2.466279 0.358049
v 0.301518 2.425118 -0.302340
v -0.227682 2.564441 0.094957
v 0.463556 2.454431 0.092537
v -0.093967 2.586902 -0.280876
v 0.130894 2.471317 0.387585
v 0.318187 2.426814 -0.326402
v -0.253924 2.577389 0.103252
v 0.493323 2.458285 0.100524
v -0.109449 2.601507 -0.303196
v 0.053553 1.256028 0.701154
v 0.400604 1.235869 -0.588199
v -0.632848 1.363845 0.250572
v 0.698566 1.286508 0.182765
v -0.419604 1.329743 -0.546292
v 0.055702 1.257449 0.741323
v 0.422632 1.236096 -0.621897
v -0.670027 1.371350 0.264927
v 0.737651 1.289431 0.193236
v -0.444565 1.335325 -0.577589
v 0.076684 0.649037 0.887892
v 0.516943 0.652326 -0.744853
v -0.798806 0.665897 0.317307
v 0.890512 0.715792 0.231441
v -0.526176 0.729680 -0.691785
v 0.078505 0.661584 0.926607
v 0.537955 0.664792 -0.777332
v -0.835150 0.679442 0.331142
v 0.927805 0.730358 0.241532
v -0.550640 0.745382 -0.721950
v -0.923129 0.109533 0.353086
v 0.956176 0.109225 0.257538
v -0.620375 0.109483 -0.769791
v 0.051233 0.044274 0.988009
v 0.541099 0.044194 -0.828842
v 0.056172 0.054386 1.077257
v 0.590287 0.054268 -0.903712
v -1.006205 0.125126 0.384980
v 1.042858 0.124674 0.280801
v -0.676103 0.125053 -0.839326
v 0.604311 3.662401 0.066653
vt 0.231766 0.624581
vt 0.227867 0.571382
vt 0.277501 0.571369
vt 0.273716 0.624570
vt 0.768740 0.240851
vt 0.765138 0.194334
vt 0.814725 0.193447
vt 0.810649 0.240101
vt 0.231687 0.721045
vt 0.227867 0.671597
vt 0.277504 0.671538
vt 0.273639 0.720996
vt 0.446863 0.173440
vt 0.445968 0.124167
vt 0.540610 0.057405
vt 0.540610 0.236816
vt 0.273281 0.910191
vt 0.277422 0.958424
vt 0.227867 0.957456
vt 0.231399 0.909373
vt 0.231606 0.816787
vt 0.227867 0.768031
vt 0.277495 0.767730
vt 0.273550 0.816532
vt 0.720386 0.193447
vt 0.765138 0.210474
vt 0.765138 0.259754
vt 0.720386 0.273185
vt 0.692727 0.232204
vt 0.621664 0.686738
vt 0.696201 0.682655
vt 0.677748 0.780457
vt 0.650400 0.780871
vt 0.400914 0.107957
vt 0.373964 0.147210
vt 0.280213 0.140736
vt 0.374435 0.000000
vt 0.402363 0.187681
vt 0.379675 0.288318
vt 0.969179 0.358073
vt 0.942072 0.354379
vt 0.959321 0.284337
vt 0.968733 0.285620
vt 1.000000 0.984634
vt 0.929755 0.989728
vt 0.956224 0.899500
vt 0.983496 0.901150
vt 0.975633 0.442451
vt 0.909956 0.442451
vt 0.967174 0.201251
vt 0.902694 0.172863
vt 0.940749 0.096191
vt 0.967174 0.103263
vt 0.909956 0.454359
vt 0.840661 0.442780
vt 0.867146 0.358136
vt 0.894493 0.358671
vt 0.227867 0.571369
vt 0.227867 0.764700
vt 0.120078 0.725645
vt 0.114972 0.610556
vt 0.498864 0.707164
vt 0.498864 0.873580
vt 0.391262 0.844130
vt 0.389854 0.752792
vt 0.110774 0.764785
vt 0.110774 0.897895
vt 0.000702 0.870049
vt 0.000000 0.802610
vt 0.795313 0.905977
vt 0.721054 0.905242
vt 0.735199 0.849395
vt 0.778682 0.850338
vt 0.621664 0.682655
vt 0.621664 0.876087
vt 0.529501 0.845403
vt 0.522342 0.730279
vt 0.902694 0.000000
vt 0.902694 0.166527
vt 0.813093 0.132935
vt 0.803272 0.042065
vt 0.929755 0.815894
vt 0.929755 0.949245
vt 0.835364 0.924057
vt 0.827518 0.857064
vt 0.572156 0.892569
vt 0.576669 0.966707
vt 0.528478 0.959256
vt 0.519644 0.916664
vt 0.820844 0.489796
vt 0.820844 0.682944
vt 0.715134 0.642923
vt 0.715377 0.527571
vt 0.827518 0.682944
vt 0.827518 0.849395
vt 0.715134 0.805831
vt 0.721759 0.714670
vt 0.933461 0.682944
vt 0.933461 0.815894
vt 0.828471 0.785860
vt 0.827518 0.718415
vt 0.367510 0.928762
vt 0.293453 0.928000
vt 0.309701 0.873633
vt 0.353179 0.875073
vt 0.803272 0.000000
vt 0.803272 0.193447
vt 0.692727 0.147228
vt 0.699139 0.032075
vt 0.389854 0.707164
vt 0.389854 0.873633
vt 0.280213 0.830822
vt 0.287167 0.739712
vt 0.930600 0.489796
vt 0.930600 0.623155
vt 0.820844 0.581882
vt 0.826970 0.514739
vt 0.482044 0.930109
vt 0.407830 0.927046
vt 0.430019 0.873580
vt 0.473058 0.879512
vt 0.114972 0.571369
vt 0.114972 0.764785
vt 0.000000 0.724433
vt 0.005122 0.609278
vt 0.840661 0.288318
vt 0.840661 0.454359
vt 0.726445 0.414392
vt 0.723759 0.323051
vt 0.226264 0.764700
vt 0.226264 0.898063
vt 0.114972 0.857286
vt 0.117737 0.789890
vt 0.637121 0.213691
vt 0.562873 0.214019
vt 0.580241 0.156652
vt 0.623733 0.156507
vt 0.631867 0.937969
vt 0.656624 0.971205
vt 0.654404 0.989502
vt 0.621664 0.939831
vt 0.690890 0.911441
vt 0.653045 0.901033
vt 0.649019 0.883917
vt 0.710472 0.899916
vt 0.693102 0.954810
vt 0.710472 0.970011
vt 0.306475 0.619533
vt 0.328456 0.683252
vt 0.308974 0.707164
vt 0.280213 0.611752
vt 0.391920 0.684370
vt 0.409162 0.621342
vt 0.427739 0.616060
vt 0.405951 0.707164
vt 0.356354 0.581270
vt 0.353614 0.555446
vt 0.551657 0.570061
vt 0.582146 0.655961
vt 0.561574 0.682655
vt 0.522342 0.561158
vt 0.669167 0.657343
vt 0.692461 0.572297
vt 0.715134 0.566194
vt 0.685918 0.682655
vt 0.619835 0.518354
vt 0.616222 0.489796
vt 0.201044 0.502791
vt 0.200742 0.388175
vt 0.236794 0.364064
vt 0.236794 0.525597
vt 0.096795 0.349037
vt 0.032854 0.439464
vt 0.000000 0.436414
vt 0.086594 0.310234
vt 0.097283 0.534489
vt 0.087281 0.571369
vt 0.227867 0.863200
vt 0.277495 0.862899
vt 0.277422 0.864168
vt 0.227867 0.767730
vt 0.277504 0.767671
vt 0.765138 0.286220
vt 0.814725 0.285332
vt 0.227867 0.671538
vt 0.277501 0.671525
vt 0.993823 0.837296
vt 0.991029 0.841728
vt 0.981560 0.841155
vt 0.978501 0.836370
vt 0.986080 0.833985
vt 0.957987 0.029052
vt 0.967162 0.031507
vt 0.893802 0.286372
vt 0.903297 0.286558
vt 0.686751 0.852310
vt 0.677256 0.852454
vt 0.643531 0.265169
vt 0.540610 0.265169
vt 0.492806 0.979468
vt 0.389854 0.979468
vt 0.382598 0.977583
vt 0.280213 0.977583
vt 0.621664 0.876087
vt 0.621664 0.979036
vt 0.818081 0.956486
vt 0.715134 0.956486
vt 0.651822 0.156506
vt 0.651822 0.256326
vt 0.647727 0.256195
vt 0.647770 0.158095
vt 0.659987 0.156506
vt 0.659987 0.256338
vt 0.656174 0.255637
vt 0.655910 0.157534
vt 0.664028 0.156506
vt 0.664028 0.255766
vt 0.659987 0.254997
vt 0.660032 0.157436
vt 0.647727 0.156506
vt 0.647727 0.256334
vt 0.643531 0.255175
vt 0.643711 0.157071
vt 0.655910 0.156506
vt 0.655910 0.256300
vt 0.651841 0.254766
vt 0.651822 0.156691
vt 0.688978 0.063776
vt 0.616112 0.004249
vt 0.616265 0.000000
vt 0.692727 0.062470
vt 0.572327 0.153384
vt 0.667563 0.153372
vt 0.670239 0.156506
vt 0.570315 0.156506
vt 0.544017 0.059630
vt 0.540610 0.058118
vt 0.241575 0.472568
vt 0.241575 0.538649
vt 0.239345 0.538345
vt 0.239246 0.473360
vt 0.253716 0.472946
vt 0.253716 0.539217
vt 0.251546 0.539121
vt 0.251443 0.473952
vt 0.244082 0.472993
vt 0.244082 0.534709
vt 0.241849 0.533890
vt 0.241941 0.473152
vt 0.255949 0.472946
vt 0.255949 0.539193
vt 0.253716 0.538353
vt 0.253806 0.473207
vt 0.239246 0.472568
vt 0.239246 0.542829
vt 0.236794 0.542225
vt 0.236821 0.473164
vt 0.432046 0.614615
vt 0.464265 0.663498
vt 0.462588 0.667735
vt 0.427739 0.614884
vt 0.519425 0.575411
vt 0.459035 0.559639
vt 0.456933 0.555446
vt 0.522210 0.572498
vt 0.519415 0.644309
vt 0.522210 0.646971
vt 0.279528 0.310234
vt 0.279528 0.437904
vt 0.276944 0.436956
vt 0.277008 0.310817
vt 0.666575 0.156506
vt 0.666575 0.284180
vt 0.664028 0.283218
vt 0.664168 0.157082
vt 0.669035 0.156506
vt 0.669035 0.283774
vt 0.666597 0.283077
vt 0.666575 0.157331
vt 0.671408 0.156506
vt 0.671408 0.284176
vt 0.669215 0.283594
vt 0.669035 0.157466
vt 0.279517 0.437904
vt 0.279517 0.565328
vt 0.276960 0.564682
vt 0.276944 0.438783
vt 0.527718 0.364997
vt 0.566539 0.485017
vt 0.563391 0.489796
vt 0.522342 0.362903
vt 0.689341 0.485010
vt 0.718219 0.369905
vt 0.723759 0.368091
vt 0.693217 0.489796
vt 0.620461 0.294454
vt 0.620399 0.288318
vt 0.241849 0.310234
vt 0.241849 0.472568
vt 0.236908 0.470844
vt 0.236795 0.311741
vt 0.251443 0.310234
vt 0.251443 0.473013
vt 0.246705 0.471150
vt 0.246998 0.311631
vt 0.246705 0.310234
vt 0.246705 0.472993
vt 0.241849 0.471097
vt 0.242128 0.311595
vt 0.260450 0.310234
vt 0.260450 0.473086
vt 0.256570 0.471646
vt 0.256156 0.312068
vt 0.256156 0.310234
vt 0.256156 0.472946
vt 0.251502 0.471674
vt 0.251443 0.312209
vt 0.518439 0.504759
vt 0.518426 0.346431
vt 0.522342 0.343382
vt 0.522342 0.508617
vt 0.371331 0.293681
vt 0.286403 0.417411
vt 0.280213 0.417454
vt 0.368878 0.288318
vt 0.372010 0.549641
vt 0.369559 0.555446
vt 0.263940 0.310234
vt 0.263940 0.490005
vt 0.260450 0.488776
vt 0.260603 0.311381
vt 0.270721 0.310234
vt 0.270721 0.490036
vt 0.267366 0.488627
vt 0.267558 0.311203
vt 0.273931 0.310234
vt 0.273931 0.489742
vt 0.270721 0.488527
vt 0.270728 0.311381
vt 0.276944 0.310234
vt 0.276944 0.490023
vt 0.274144 0.489095
vt 0.273931 0.311685
vt 0.267366 0.310234
vt 0.267366 0.489927
vt 0.264092 0.488745
vt 0.263940 0.311428
vt 0.270410 0.246482
vt 0.270428 0.069452
vt 0.280213 0.061875
vt 0.280213 0.254889
vt 0.106531 0.012711
vt 0.013429 0.151582
vt 0.000000 0.151424
vt 0.101536 0.000000
vt 0.111576 0.297241
vt 0.107032 0.310234
vt 1.000000 0.815894
vt 0.966469 0.000000
vt 0.696201 0.883917
vt 0.909956 0.252254
vt 0.963619 0.252254
vn 0.6250 -0.0991 0.7743
vn -0.5433 -0.0991 0.8337
vn -0.9608 -0.0991 -0.2590
vn 0.1370 -0.9478 -0.2879
vn -0.0505 -0.0991 -0.9938
vn 0.9295 -0.0991 -0.3552
vn 0.0000 -1.0000 0.0000
vn -0.4418 0.4464 0.7782
vn -0.2800 -0.9478 0.1523
vn -0.1655 -0.9478 -0.2725
vn 0.2570 -0.9639 0.0693
vn -0.0263 -0.9478 0.3177
vn -0.7754 0.5842 -0.2398
vn 0.9263 0.0624 -0.3717
vn -0.7886 0.5637 -0.2454
vn 0.6254 0.1814 0.7589
vn 0.0514 0.2862 -0.9568
vn -0.0261 0.4813 -0.8762
vn -0.0130 0.4683 -0.8835
vn -0.0016 0.4073 -0.9133
vn 0.0381 0.3762 -0.9257
vn 0.5457 0.4613 0.6996
vn 0.5421 0.4791 0.6904
vn 0.5809 0.3818 0.7189
vn 0.6252 0.2808 0.7282
vn -0.8184 0.5304 -0.2211
vn -0.8653 0.4515 -0.2177
vn -0.8465 0.4729 -0.2445
vn -0.8096 0.5356 -0.2402
vn 0.8281 0.4512 -0.3326
vn 0.8099 0.4877 -0.3260
vn 0.8648 0.3664 -0.3434
vn 0.9091 0.2345 -0.3443
vn -0.4582 0.4963 0.7374
vn -0.4807 0.4385 0.7594
vn -0.4499 0.4378 0.7784
vn -0.4185 0.4518 0.7879
vn -0.2412 -0.7964 0.5546
vn -0.4712 -0.7392 -0.4812
vn 0.2598 -0.9629 0.0734
vn -0.6658 -0.6954 0.2703
vn 0.2304 -0.7635 -0.6032
vn 0.0995 -0.9110 -0.4002
vn -0.4788 -0.8525 0.2098
vn 0.1320 -0.9893 0.0628
vn -0.3218 -0.8684 -0.3773
vn -0.1267 -0.8881 0.4418
vn 0.1077 -0.9378 -0.3302
vn -0.3775 -0.9098 0.1722
vn 0.1707 -0.9823 0.0767
vn -0.2471 -0.9173 -0.3121
vn -0.0608 -0.9058 0.4193
vn 0.2334 -0.8960 -0.3778
vn -0.2792 -0.9496 0.1427
vn 0.2934 -0.9550 0.0438
vn -0.1777 -0.9450 -0.2745
vn -0.0294 -0.9517 0.3056
vn 0.9283 0.1116 -0.3547
vn -0.0505 0.1116 -0.9925
vn -0.9595 0.1116 -0.2587
vn -0.5425 0.1116 0.8326
vn 0.6242 0.1116 0.7733
vn 0.2312 0.9729 0.0000
vn 0.6033 -0.1765 0.7777
vn 0.0113 0.2600 -0.9656
vn -0.4628 0.3490 0.8148
vn 0.9048 -0.2322 -0.3569
vn -0.4441 0.3907 0.8063
vn 0.8643 0.3548 -0.3565
vn -0.8720 0.4224 -0.2472
vn 0.5838 0.3620 0.7267
vn 0.0340 0.3759 -0.9260
vn 0.0104 0.2814 -0.9595
vn 0.5964 0.2694 0.7562
vn -0.9149 0.3136 -0.2541
vn 0.8914 0.2636 -0.3687
vn -0.4802 0.2930 0.8268
vn -0.2145 -0.9523 -0.2170
vn 0.1167 -0.9872 0.1085
vn -0.3817 -0.9211 -0.0764
vn 0.1392 -0.9901 0.0173
vn -0.3090 -0.9418 0.1327
vn 0.0639 0.2825 -0.9571
vn 0.6140 0.1846 0.7674
vn -0.7883 0.5636 -0.2468
vn 0.9215 0.0632 -0.3831
vn -0.4482 0.4482 0.7734
vn -0.3736 -0.8721 -0.3161
vn 0.0888 -0.9837 0.1564
vn -0.4841 -0.8463 -0.2225
vn 0.1260 -0.9918 0.0217
vn -0.3873 -0.9028 0.1873
vn -0.4444 0.4374 0.7818
vn 0.8594 0.3666 -0.3565
vn -0.8459 0.4729 -0.2466
vn 0.5675 0.3825 0.7291
vn -0.0000 0.4072 -0.9133
vn -0.1827 -0.9822 0.0434
vn 0.0665 -0.9970 0.0397
vn -0.2028 -0.9791 -0.0124
vn 0.0699 -0.9971 0.0286
vn -0.1175 -0.9896 -0.0831
vn -0.4849 0.4385 0.7567
vn 0.8042 0.4875 -0.3399
vn -0.8683 0.4514 -0.2056
vn 0.5266 0.4787 0.7025
vn -0.0101 0.4683 -0.8835
vn -0.2218 -0.9235 0.3128
vn 0.3902 -0.9163 -0.0901
vn -0.3918 -0.9055 -0.1628
vn 0.2946 -0.9159 0.2727
vn -0.0880 -0.9103 -0.4045
vn -0.4503 0.4959 0.7425
vn 0.8242 0.4512 -0.3422
vn -0.8185 0.5304 -0.2207
vn 0.5367 0.4615 0.7064
vn -0.0173 0.4809 -0.8766
vn -0.1419 -0.9829 0.1170
vn 0.1808 -0.9835 -0.0104
vn -0.2045 -0.9773 -0.0551
vn 0.1512 -0.9834 0.1003
vn -0.0638 -0.9831 -0.1717
vn 0.8994 -0.2527 -0.3567
vn 0.5506 -0.3418 0.7616
vn -0.4764 0.3121 0.8220
vn 0.0546 0.4282 -0.9020
vn -0.6763 0.7027 -0.2212
g Cylinder.001_Cylinder.001_None
usemtl None
s off
f 61/1/1 2/2/1 4/3/1 62/4/1
f 62/5/2 4/6/2 6/7/2 63/8/2
f 63/9/3 6/10/3 8/11/3 64/12/3
f 6/13/4 4/14/4 11/15/4 13/16/4
f 64/17/5 8/18/5 10/19/5 65/20/5
f 65/21/6 10/22/6 2/23/6 61/24/6
f 1/25/7 3/26/7 5/27/7 7/28/7 9/29/7
f 93/30/8 91/31/8 16/32/8 18/33/8
f 2/34/9 10/35/9 15/36/9 12/37/9
f 4/14/10 2/34/10 12/37/10 11/15/10
f 8/38/11 6/13/11 13/16/11 14/39/11
f 10/35/12 8/38/12 14/39/12 15/36/12
f 19/40/13 18/41/13 68/42/13 69/43/13
f 94/44/14 92/45/14 20/46/14 17/47/14
f 95/48/15 93/49/15 18/41/15 19/40/15
f 91/50/16 94/51/16 17/52/16 16/53/16
f 92/54/17 95/55/17 19/56/17 20/57/17
f 122/58/18 125/59/18 40/60/18 29/61/18
f 112/62/19 115/63/19 39/64/19 30/65/19
f 102/66/20 105/67/20 38/68/20 31/69/20
f 72/70/21 75/71/21 37/72/21 32/73/21
f 121/74/22 124/75/22 36/76/22 21/77/22
f 111/78/23 114/79/23 35/80/23 22/81/23
f 101/82/24 104/83/24 34/84/24 23/85/24
f 71/86/25 74/87/25 33/88/25 24/89/25
f 125/90/26 123/91/26 28/92/26 40/93/26
f 115/94/27 113/95/27 27/96/27 39/97/27
f 105/98/28 103/99/28 26/100/28 38/101/28
f 75/102/29 73/103/29 25/104/29 37/105/29
f 124/106/30 122/107/30 29/108/30 36/109/30
f 114/110/31 112/111/31 30/112/31 35/113/31
f 104/114/32 102/115/32 31/116/32 34/117/32
f 74/118/33 72/119/33 32/120/33 33/121/33
f 123/122/34 121/123/34 21/124/34 28/125/34
f 113/126/35 111/127/35 22/128/35 27/129/35
f 103/130/36 101/131/36 23/132/36 26/133/36
f 73/134/37 71/135/37 24/136/37 25/137/37
f 32/138/38 37/139/38 45/140/38 42/141/38
f 24/142/39 33/143/39 44/144/39 41/145/39
f 37/139/40 25/146/40 43/147/40 45/140/40
f 33/143/41 32/138/41 42/141/41 44/144/41
f 25/146/42 24/142/42 41/145/42 43/147/42
f 26/148/43 23/149/43 46/150/43 47/151/43
f 34/152/44 31/153/44 48/154/44 49/155/44
f 38/156/45 26/148/45 47/151/45 50/157/45
f 23/149/46 34/152/46 49/155/46 46/150/46
f 31/153/47 38/156/47 50/157/47 48/154/47
f 27/158/48 22/159/48 51/160/48 52/161/48
f 35/162/49 30/163/49 53/164/49 54/165/49
f 39/166/50 27/158/50 52/161/50 55/167/50
f 22/159/51 35/162/51 54/165/51 51/160/51
f 30/163/52 39/166/52 55/167/52 53/164/52
f 28/168/53 21/169/53 56/170/53 57/171/53
f 36/172/54 29/173/54 58/174/54 59/175/54
f 40/176/55 28/168/55 57/171/55 60/177/55
f 21/169/56 36/172/56 59/175/56 56/170/56
f 29/173/57 40/176/57 60/177/57 58/174/57
f 9/178/58 65/21/58 61/24/58 1/179/58
f 7/180/59 64/17/59 65/20/59 9/178/59
f 5/181/60 63/9/60 64/12/60 7/182/60
f 3/183/61 62/5/61 63/8/61 5/184/61
f 1/185/62 61/1/62 62/4/62 3/186/62
f 66/187/63 67/188/63 70/189/63 69/190/63 68/191/63
f 16/53/64 17/52/64 67/192/64 66/193/64
f 20/57/65 19/56/65 69/194/65 70/195/65
f 18/33/66 16/32/66 66/196/66 68/197/66
f 17/47/67 20/46/67 70/189/67 67/188/67
f 83/198/68 81/199/68 71/135/68 73/134/68
f 84/200/69 82/201/69 72/119/69 74/118/69
f 85/202/70 83/203/70 73/103/70 75/102/70
f 81/204/71 84/205/71 74/87/71 71/86/71
f 82/206/72 85/207/72 75/71/72 72/70/72
f 48/208/73 50/209/73 78/210/73 80/211/73
f 46/212/74 49/213/74 77/214/74 79/215/74
f 50/216/75 47/217/75 76/218/75 78/219/75
f 49/220/76 48/221/76 80/222/76 77/223/76
f 47/224/77 46/225/77 79/226/77 76/227/77
f 80/228/78 78/229/78 85/230/78 82/231/78
f 79/232/79 77/233/79 84/234/79 81/235/79
f 78/229/80 76/236/80 83/237/80 85/230/80
f 77/233/81 80/228/81 82/231/81 84/234/81
f 76/236/82 79/232/82 81/235/82 83/237/82
f 42/238/83 45/239/83 90/240/83 87/241/83
f 41/242/84 44/243/84 89/244/84 86/245/84
f 45/246/85 43/247/85 88/248/85 90/249/85
f 44/250/86 42/251/86 87/252/86 89/253/86
f 43/254/87 41/255/87 86/256/87 88/257/87
f 87/258/88 90/259/88 95/260/88 92/261/88
f 86/262/89 89/263/89 94/264/89 91/265/89
f 90/259/90 88/266/90 93/267/90 95/260/90
f 89/263/91 87/258/91 92/261/91 94/264/91
f 88/266/92 86/262/92 91/265/92 93/267/92
f 52/268/93 51/269/93 96/270/93 98/271/93
f 54/272/94 53/273/94 97/274/94 99/275/94
f 55/276/95 52/277/95 98/278/95 100/279/95
f 51/280/96 54/281/96 99/282/96 96/283/96
f 53/284/97 55/285/97 100/286/97 97/287/97
f 98/288/98 96/289/98 101/290/98 103/291/98
f 99/292/99 97/293/99 102/294/99 104/295/99
f 100/296/100 98/288/100 103/291/100 105/297/100
f 96/289/101 99/292/101 104/295/101 101/290/101
f 97/293/102 100/296/102 105/297/102 102/294/102
f 57/298/103 56/299/103 106/300/103 108/301/103
f 59/302/104 58/303/104 107/304/104 109/305/104
f 60/306/105 57/307/105 108/308/105 110/309/105
f 56/310/106 59/311/106 109/312/106 106/313/106
f 58/314/107 60/315/107 110/316/107 107/317/107
f 108/318/108 106/319/108 111/320/108 113/321/108
f 109/322/109 107/323/109 112/324/109 114/325/109
f 110/326/110 108/318/110 113/321/110 115/327/110
f 106/319/111 109/322/111 114/325/111 111/320/111
f 107/323/112 110/326/112 115/327/112 112/324/112
f 13/328/113 11/329/113 119/330/113 116/331/113
f 12/332/114 15/333/114 120/334/114 117/335/114
f 14/336/115 13/337/115 116/338/115 118/339/115
f 11/340/116 12/341/116 117/342/116 119/343/116
f 15/344/117 14/345/117 118/346/117 120/347/117
f 116/348/118 119/349/118 121/350/118 123/351/118
f 117/352/119 120/353/119 122/354/119 124/355/119
f 118/356/120 116/348/120 123/351/120 125/357/120
f 119/349/121 117/352/121 124/355/121 121/350/121
f 120/353/122 118/356/122 125/357/122 122/354/122
f 67/188/123 70/189/123 126/358/123
f 66/193/124 67/192/124 126/359/124
f 68/197/125 66/196/125 126/360/125
f 70/195/126 69/194/126 126/361/126
f 126/362/127 69/43/127 68/42/127
