# Blender v3.0.0 OBJ File: 'Low-Poly_Models.blend'
# www.blender.org
mtllib base_world_terrain_snowy_tree_1_green_leaves.mtl
o Cone_Cone.004
v -0.328807 -0.380248 -6.923800
v -0.033809 6.918025 -1.217035
v 3.411574 -1.088783 -5.825524
v 0.652075 6.918025 -1.015641
v 5.964411 -0.380247 -2.879393
v 1.120195 6.918025 -0.475401
v 6.519196 -1.088782 0.979218
v 1.221928 6.918025 0.232162
v 4.899787 -0.380246 4.525226
v 0.924973 6.918025 0.882403
v 1.620336 -1.088781 6.632800
v 0.323611 6.918025 1.268875
v -2.156661 -0.401470 6.600525
v -0.391229 6.918025 1.268875
v -5.589526 -0.569074 4.486816
v -0.992590 6.918025 0.882403
v -7.150022 -0.648164 1.167415
v -1.289545 6.918025 0.232162
v -6.701022 -0.703686 -2.984439
v -1.187813 6.918025 -0.475401
v -3.903193 -1.373419 -5.911894
v -0.719692 6.918025 -1.015641
v 1.353289 -0.698885 -6.429891
v 2.298608 -0.877955 -6.152320
v 1.466545 2.017228 -4.304551
v 1.649479 -1.022025 -5.270365
v 4.000159 -0.574614 5.103382
v 3.111451 -0.766622 5.674519
v 2.187868 -0.432982 3.994787
v 1.299800 4.372004 2.703243
v -5.288149 -1.041894 -4.462771
v -4.681036 -1.187222 -5.098012
v -3.329958 2.795204 -2.525487
v -3.304385 -1.121988 -2.791054
v -6.514303 -0.615944 2.519679
v -6.717394 -0.626237 2.087675
v -5.587621 -0.653269 2.195976
v -5.968472 0.219961 2.190680
v -5.523994 3.338423 2.076959
v -1.057003 9.446926 0.396425
v -5.549659 2.745393 -1.185729
v -1.062259 9.446926 -0.271703
v -3.807307 3.338422 -3.944352
v -0.705463 9.446926 -0.836609
v -0.850123 2.745392 -5.323067
v -0.099895 9.446926 -1.118940
v 2.383008 3.338422 -4.884141
v 0.562180 9.446926 -1.029057
v 4.865588 2.745392 -2.766930
v 1.070559 9.446926 -0.595498
v 5.754195 3.320658 0.267000
v 1.263835 9.446926 0.044085
v 4.891843 3.180378 3.529157
v 1.080644 9.446926 0.686629
v 2.610168 3.114183 5.583094
v 0.579148 9.446926 1.128132
v -0.824991 3.067712 6.228580
v -0.081431 9.446926 1.228418
v -3.847850 2.507159 4.695748
v -0.691365 9.446926 0.955649
v -5.535535 3.071730 0.609687
v -5.542022 2.921852 -0.214903
v -3.860141 5.345060 0.004372
v -4.678239 2.801269 0.091643
v 3.064037 3.175740 -4.303342
v 3.736799 3.015033 -3.729593
v 2.614615 3.294284 -2.582935
v 1.794849 7.315959 -1.558718
v -2.351501 2.784639 5.454516
v -3.007444 2.663002 5.121901
v -1.273461 5.269897 3.416576
v -1.749464 2.717601 4.332321
v 3.539681 3.141149 4.746357
v 3.242733 3.132534 5.013667
v 3.055970 3.109909 4.082276
v 3.143935 3.840785 4.388694
v -4.446797 6.101830 2.482075
v -0.786809 11.435151 0.471503
v -4.914958 5.584057 -0.327926
v -0.872657 11.435151 -0.043774
v -3.789597 6.101830 -2.944956
v -0.666296 11.435151 -0.523666
v -1.428011 5.584056 -4.538126
v -0.233246 11.435151 -0.815810
v 1.420015 6.101830 -4.601617
v 0.289004 11.435151 -0.827452
v 3.850251 5.584057 -3.115268
v 0.734643 11.435151 -0.554897
v 5.031278 6.086320 -0.620500
v 0.962184 11.435151 -0.084678
v 4.733604 5.963842 2.310441
v 0.899384 11.435151 0.433914
v 3.046836 5.906047 4.393528
v 0.566181 11.435151 0.836228
v 0.172840 5.865473 5.419756
v 0.068366 11.435151 0.994533
v -2.643406 5.376056 4.511194
v -0.436009 11.435151 0.858569
v -4.657335 5.868982 1.218382
v -4.775654 5.738123 0.508201
v -3.600182 6.877470 0.807936
v -4.207198 5.632843 0.761458
v 2.086684 5.959793 -4.193877
v 2.745261 5.819479 -3.791088
v 2.110331 6.063293 -3.165542
v 1.919046 7.451579 -2.823836
v -1.249333 5.618323 4.960942
v -1.860442 5.512122 4.763789
v -0.892969 6.621856 4.001583
v -0.816530 5.559793 3.965340
v 3.733995 5.929592 3.544916
v 3.514471 5.922070 3.816020
v 3.226092 5.902315 3.038385
v 3.343837 6.540442 3.290594
v 3.127550 8.819304 3.034416
v 0.697034 13.283184 0.747757
v 0.989535 8.385939 4.089844
v 0.179009 13.283184 1.003479
v -1.379685 8.819304 3.821830
v -0.395035 13.283184 0.938541
v -3.227901 8.385939 2.315464
v -0.842844 13.283184 0.573560
v -3.968316 8.819304 0.049008
v -1.022241 13.283184 0.024415
v -3.365853 8.385938 -2.257954
v -0.876268 13.283184 -0.534545
v -1.652997 8.806321 -3.808207
v -0.451273 13.283184 -0.925853
v 0.767333 8.703809 -4.279333
v 0.117814 13.283184 -1.025272
v 2.844685 8.655436 -3.432244
v 0.650311 13.283184 -0.801238
v 4.362730 8.621477 -1.378075
v 0.977152 13.283184 -0.324879
v 4.316646 8.211845 1.098267
v 0.994571 13.283184 0.252564
v 2.166058 8.624414 3.509056
v 1.625710 8.514889 3.775798
v 1.234589 10.285685 2.599664
v 1.552404 8.426771 3.110028
v -3.803046 8.700421 -0.583844
v -3.639783 8.582982 -1.209014
v -2.528314 8.787048 -0.835839
v -1.593647 11.725947 -0.622620
v 4.339458 8.414618 -0.127549
v 4.329458 8.325729 0.409803
v 2.655757 10.761521 -0.187983
v 2.754273 8.365628 -0.057895
v 1.998410 8.675142 -3.777333
v 2.268767 8.668846 -3.667089
v 1.715549 8.652312 -3.247765
v 1.889110 9.186411 -3.403166
v 4.923461 6.041959 0.441078
v 4.863583 6.017322 1.030649
v 4.017762 7.198303 0.762746
v 4.175848 6.002267 0.730427
v 2.804637 11.069092 -2.084156
v 0.723050 14.604590 -0.455428
v 3.374629 10.725857 -0.283784
v 0.861155 14.604590 -0.019212
v 2.880785 11.069093 1.538946
v 0.741500 14.604590 0.422422
v 1.479893 10.725857 2.805332
v 0.402074 14.604590 0.729258
v -0.383272 11.069093 3.113304
v -0.049356 14.604590 0.803877
v -2.117167 10.725857 2.365083
v -0.469466 14.604590 0.622589
v -3.125525 11.058810 0.838250
v -0.724873 14.604590 0.242951
v -3.204226 10.977618 -1.113101
v -0.734488 14.604590 -0.214504
v -2.292013 10.939305 -2.637910
v -0.495257 14.604590 -0.604538
v -0.501826 10.912409 -3.580137
v -0.083135 14.604590 -0.803318
v 1.431375 10.587971 -3.247198
v 0.371032 14.604590 -0.747732
v 3.060970 10.914735 -1.274506
v 3.205026 10.827988 -0.819492
v 2.237346 12.230500 -0.654276
v 2.675008 10.758198 -0.841912
v -0.858919 10.974936 2.908050
v -1.328792 10.881922 2.705287
v -0.991602 11.043547 2.435642
v -0.624418 13.371222 1.173666
v 0.474419 10.748570 -3.412006
v 0.893912 10.678169 -3.339761
v 0.225267 12.607374 -2.101084
v 0.338923 10.709770 -2.162617
v -2.663632 10.954913 -2.016731
v -2.544912 10.949926 -2.215177
v -2.282942 10.936831 -1.731796
v -2.383799 11.359850 -1.886306
v -2.708715 12.770656 -1.178131
v -0.045537 16.873177 -0.072489
v -1.635276 12.479656 -2.366020
v -0.028757 16.873177 -0.091058
v -0.090021 12.770655 -2.784991
v -0.004601 16.873177 -0.097607
v 1.436443 12.479656 -2.302024
v 0.019260 16.873177 -0.090057
v 2.459474 12.770656 -1.070457
v 0.035252 16.873177 -0.070805
v 2.654267 12.479656 0.518695
v 0.038297 16.873177 -0.045964
v 1.968671 12.761938 1.910259
v 0.027429 16.873177 -0.023419
v 0.574415 12.693103 2.803270
v 0.006097 16.873177 -0.010330
v -0.931942 12.660622 2.788543
v -0.018925 16.873177 -0.010851
v -2.387861 12.637818 1.881919
v -0.039694 16.873177 -0.024818
v -2.971874 12.362755 0.324713
v -0.049614 16.873177 -0.047795
v -2.225976 12.639789 -1.712340
v -1.954682 12.566244 -2.012559
v -1.419495 13.755310 -1.375169
v -1.744175 12.507074 -1.615107
v 2.512910 12.690828 -0.634516
v 2.565697 12.611969 -0.203867
v 2.055012 12.748997 -0.311161
v 1.289443 14.722427 -0.063587
v -2.682780 12.498915 1.095547
v -2.809508 12.439227 0.757643
v -1.616813 14.074828 0.716633
v -1.710500 12.466019 0.659806
v -0.318279 12.673854 2.794542
v -0.514324 12.669626 2.792626
v -0.272754 12.658524 2.393976
v -0.342641 13.017164 2.533930
vn 0.0000 1.0000 -0.0000
vn 0.3289 0.5734 -0.7503
vn -0.7922 0.5995 -0.1139
vn 0.5543 0.5606 -0.6152
vn -0.6259 0.5605 -0.5423
vn -0.7254 0.6041 0.3299
vn -0.7247 0.6043 0.3310
vn -0.7265 0.6037 0.3281
vn 0.8304 0.5568 -0.0171
vn -0.4362 0.5960 0.6741
vn -0.4339 0.5965 0.6752
vn -0.4407 0.5951 0.6720
vn 0.7922 0.5565 0.2506
vn 0.0000 0.5566 0.8308
vn 0.3595 0.5588 0.7473
vn 0.4399 0.5813 0.6845
vn 0.0969 0.5706 0.8155
vn 0.7660 0.5394 0.3498
vn -0.4424 0.5948 0.6713
vn 0.8331 0.5400 -0.1198
vn -0.7270 0.6036 0.3274
vn 0.6141 0.5829 -0.5321
vn -0.7918 0.6036 -0.0937
vn 0.2337 0.5586 -0.7958
vn -0.5178 0.5812 -0.6278
vn -0.2241 0.6059 -0.7633
vn -0.3667 0.5734 -0.7326
vn -0.0001 -0.9998 0.0185
vn 0.9690 0.1258 -0.2125
vn -0.8085 0.1335 -0.5732
vn 0.8786 0.0344 -0.4763
vn -0.5094 0.1343 0.8500
vn 0.6447 0.0559 -0.7624
vn -0.8575 -0.0404 0.5129
vn -0.0962 -0.0359 0.9947
vn -0.3314 -0.1502 -0.9315
vn -0.8162 0.5696 -0.0971
vn 0.1204 0.5967 0.7933
vn -0.7530 0.5529 -0.3568
vn -0.3380 0.5610 0.7557
vn 0.5298 0.5958 0.6035
vn 0.5306 0.5961 0.6027
vn 0.5285 0.5954 0.6051
vn -0.2640 0.5405 -0.7988
vn 0.7820 0.5811 0.2253
vn 0.7823 0.5815 0.2230
vn 0.7813 0.5803 0.2298
vn 0.0160 0.5370 -0.8434
vn 0.8078 0.5365 -0.2441
vn 0.6197 0.5311 -0.5778
vn 0.5382 0.5587 -0.6311
vn 0.7673 0.5504 -0.3291
vn 0.1150 0.5186 -0.8472
vn 0.7811 0.5800 0.2314
vn -0.3598 0.5244 -0.7717
vn 0.5280 0.5953 0.6057
vn -0.6923 0.5740 -0.4373
vn 0.1398 0.6007 0.7872
vn -0.8313 0.5558 0.0065
vn -0.4527 0.5728 0.6833
vn -0.6655 0.6064 0.4351
vn -0.5948 0.5739 0.5629
vn 0.0182 -0.9998 -0.0051
vn -0.4837 0.1258 -0.8661
vn -0.3149 0.1335 0.9397
vn -0.7101 0.0344 -0.7033
vn 0.9610 0.1343 0.2418
vn -0.8813 -0.0052 -0.4725
vn 0.5142 0.2031 0.8333
vn 0.9800 -0.0359 -0.1956
vn -0.7958 -0.1502 0.5867
vn -0.8252 0.5639 0.0336
vn 0.2425 0.5995 0.7627
vn -0.7952 0.5606 -0.2310
vn -0.2155 0.5605 0.7996
vn 0.6130 0.6041 0.5092
vn 0.6136 0.6043 0.5082
vn 0.6119 0.6037 0.5110
vn -0.3772 0.5568 -0.7400
vn 0.7968 0.5960 0.0991
vn 0.7968 0.5965 0.0965
vn 0.7969 0.5951 0.1040
vn -0.1195 0.5565 -0.8222
vn 0.7478 0.5566 -0.3619
vn 0.5171 0.5538 -0.6526
vn 0.4246 0.5813 -0.6942
vn 0.6918 0.5706 -0.4424
vn -0.0188 0.5394 -0.8418
vn 0.7969 0.5948 0.1058
vn -0.4707 0.5400 -0.6977
vn 0.6114 0.6036 0.5118
vn -0.7465 0.5829 -0.3210
vn 0.2605 0.6036 0.7535
vn -0.8182 0.5586 0.1363
vn -0.3400 0.5749 0.7442
vn -0.5895 0.6059 0.5342
vn -0.4997 0.5734 0.6492
vn 0.0167 -0.9998 -0.0078
vn -0.5895 0.3153 -0.7437
vn -0.3789 0.1507 0.9131
vn -0.6826 0.0846 -0.7258
vn 0.9887 0.1454 -0.0374
vn -0.9170 -0.0525 -0.3955
vn 0.6070 0.0166 0.7946
vn 0.0450 -0.9990 0.0087
vn 0.2770 0.5508 0.7873
vn 0.6715 0.5804 -0.4607
vn 0.0019 0.5334 0.8459
vn 0.8382 0.5448 -0.0253
vn 0.3172 0.5786 -0.7514
vn 0.3162 0.5789 -0.7516
vn 0.3189 0.5781 -0.7511
vn -0.6094 0.5206 0.5979
vn -0.1404 0.5622 -0.8150
vn -0.1423 0.5625 -0.8144
vn -0.1366 0.5614 -0.8162
vn -0.7798 0.5166 0.3535
vn -0.5800 0.5165 -0.6299
vn -0.8075 0.5045 -0.3056
vn -0.8160 0.5374 -0.2131
vn -0.6366 0.5310 -0.5593
vn -0.8246 0.4974 0.2694
vn -0.1352 0.5611 -0.8166
vn -0.5457 0.5039 0.6695
vn 0.3197 0.5779 -0.7509
vn -0.0935 0.5547 0.8268
vn 0.6570 0.5847 -0.4759
vn 0.3731 0.5381 0.7558
vn 0.8170 0.5663 0.1089
vn 0.6921 0.5899 0.4159
vn 0.7741 0.5572 0.3006
vn -0.0125 -0.9998 -0.0136
vn -0.5690 0.1258 0.8127
vn 0.9830 0.1335 -0.1259
vn -0.3238 0.0344 0.9455
vn -0.2010 0.1343 -0.9704
vn 0.0421 0.0559 0.9975
vn 0.2835 -0.0404 -0.9581
vn -0.6030 -0.0359 -0.7969
vn 0.8747 -0.1502 0.4607
vn 0.3598 0.0224 0.9328
vn 0.3975 0.0772 -0.9144
vn 0.8202 0.5508 -0.1547
vn -0.3538 0.5804 -0.7335
vn 0.8364 0.5334 0.1262
vn 0.1019 0.5448 -0.8323
vn -0.6947 0.5786 -0.4272
vn -0.6951 0.5789 -0.4263
vn -0.6941 0.5781 -0.4289
vn 0.4988 0.5206 0.6929
vn -0.8269 0.5622 0.0153
vn -0.8266 0.5625 0.0174
vn -0.8275 0.5614 0.0115
vn 0.2314 0.5166 0.8243
vn -0.7105 0.5165 0.4780
vn -0.4244 0.5045 0.7520
vn -0.3341 0.5374 0.7743
vn -0.6492 0.5310 0.5446
vn 0.1415 0.4974 0.8559
vn -0.8277 0.5611 0.0100
vn 0.5792 0.5039 0.6408
vn -0.6939 0.5779 -0.4296
vn 0.8031 0.5547 0.2176
vn -0.3710 0.5847 -0.7215
vn 0.8036 0.5381 -0.2544
vn 0.2313 0.5663 -0.7911
vn 0.5158 0.5899 -0.6212
vn 0.4143 0.5572 -0.7197
vn -0.0145 -0.9998 0.0104
vn 0.7172 0.1258 0.6854
vn 0.0243 0.1335 -0.9908
vn 0.4700 0.3622 0.8049
vn -0.9046 0.3044 0.2983
vn 0.9924 0.0559 0.1094
vn -0.9042 -0.0404 -0.4252
vn -0.8790 -0.0359 0.4754
vn 0.5878 -0.1502 -0.7949
vn 0.0000 1.0000 0.0001
vn 0.0000 1.0000 -0.0004
vn -0.5602 0.5305 -0.6362
vn -0.4631 0.5580 0.6886
vn -0.3134 0.5245 -0.7916
vn -0.7776 0.5315 0.3358
vn -0.0182 0.5564 0.8307
vn -0.0173 0.5567 0.8305
vn -0.0194 0.5561 0.8309
vn 0.3464 0.5090 -0.7880
vn 0.4374 0.5435 0.7164
vn 0.4389 0.5437 0.7153
vn 0.4349 0.5431 0.7182
vn 0.6010 0.5059 -0.6188
vn 0.7751 0.5095 0.3737
vn 0.8605 0.5092 -0.0122
vn 0.8450 0.5246 -0.1035
vn 0.8047 0.5171 0.2916
vn 0.0000 1.0000 0.0002
vn 0.6683 0.4951 -0.5552
vn 0.4337 0.5430 0.7191
vn 0.0000 1.0000 -0.0003
vn 0.2612 0.5000 -0.8257
vn -0.0201 0.5558 0.8310
vn -0.2206 0.5377 -0.8138
vn -0.4440 0.5608 0.6989
vn -0.6310 0.5260 -0.5702
vn -0.8144 0.5411 0.2098
vn -0.8142 0.5648 -0.1345
vn -0.8392 0.5438 0.0006
vn 0.0163 -0.9998 0.0076
vn 0.2294 0.1258 -0.9652
vn -0.8674 0.1335 0.4793
vn 0.2562 0.2176 -0.9418
vn 0.5829 0.1254 0.8028
vn -0.4068 0.0559 -0.9118
vn 0.0896 -0.0404 0.9952
vn 0.8542 -0.0359 0.5186
vn -0.9830 -0.1502 -0.1060
g Cone_Cone.004_None
usemtl None
s 1
f 6//1 4//1 2//1
f 2//2 3//2 24//2 25//2 23//2 1//2
f 17//3 18//3 20//3
f 4//4 5//4 3//4
f 20//5 22//5 21//5
f 15//6 16//7 18//8
f 6//9 7//9 5//9
f 16//1 12//1 8//1
f 13//10 14//11 16//12
f 7//13 10//13 9//13
f 2//1 20//1 16//1
f 11//14 12//14 14//14
f 9//15 12//15 11//15 28//15 30//15 27//15
f 8//1 6//1 2//1
f 9//16 10//16 12//16
f 11//17 14//17 13//17
f 12//1 10//1 8//1
f 7//18 8//18 10//18
f 13//10 16//12 15//19
f 16//1 14//1 12//1
f 6//20 8//20 7//20
f 15//6 18//8 17//21 36//21 38//21 35//21
f 20//1 18//1 16//1
f 4//22 6//22 5//22
f 17//23 20//23 19//23
f 2//1 16//1 8//1
f 2//24 4//24 3//24
f 20//25 21//25 32//25 33//25 31//25 19//25
f 22//26 2//26 1//26
f 2//1 22//1 20//1
f 22//27 1//27 21//27
f 1//28 23//28 26//28 24//28 3//28 5//28 7//28 9//28 27//28 29//28 28//28 11//28 13//28 15//28 35//28 37//28 36//28 17//28 19//28 31//28 34//28 32//28 21//28
f 26//29 23//29 25//29
f 25//30 24//30 26//30
f 30//31 28//31 29//31
f 29//32 27//32 30//32
f 44//1 42//1 40//1
f 34//33 31//33 33//33
f 33//34 32//34 34//34
f 38//35 36//35 37//35
f 37//36 35//36 38//36
f 40//37 41//37 62//37 63//37 61//37 39//37
f 55//38 56//38 58//38
f 42//39 43//39 41//39
f 58//40 60//40 59//40
f 53//41 54//42 56//43
f 44//44 45//44 43//44
f 54//1 50//1 46//1
f 51//45 52//46 54//47
f 45//48 48//48 47//48
f 40//1 58//1 54//1
f 49//49 50//49 52//49
f 47//50 50//50 49//50 66//50 68//50 65//50
f 46//1 44//1 40//1
f 47//51 48//51 50//51
f 49//52 52//52 51//52
f 50//1 48//1 46//1
f 45//53 46//53 48//53
f 51//45 54//47 53//54
f 54//1 52//1 50//1
f 44//55 46//55 45//55
f 53//41 56//43 55//56 74//56 76//56 73//56
f 58//1 56//1 54//1
f 42//57 44//57 43//57
f 55//58 58//58 57//58
f 40//1 54//1 46//1
f 40//59 42//59 41//59
f 58//60 59//60 70//60 71//60 69//60 57//60
f 60//61 40//61 39//61
f 40//1 60//1 58//1
f 60//62 39//62 59//62
f 39//63 61//63 64//63 62//63 41//63 43//63 45//63 47//63 65//63 67//63 66//63 49//63 51//63 53//63 73//63 75//63 74//63 55//63 57//63 69//63 72//63 70//63 59//63
f 64//64 61//64 63//64
f 63//65 62//65 64//65
f 68//66 66//66 67//66
f 67//67 65//67 68//67
f 72//68 69//68 71//68
f 71//69 70//69 72//69
f 76//70 74//70 75//70
f 75//71 73//71 76//71
f 82//1 80//1 78//1
f 78//72 79//72 100//72 101//72 99//72 77//72
f 93//73 94//73 96//73
f 80//74 81//74 79//74
f 96//75 98//75 97//75
f 91//76 92//77 94//78
f 82//79 83//79 81//79
f 92//1 88//1 84//1
f 89//80 90//81 92//82
f 83//83 86//83 85//83
f 78//1 96//1 92//1
f 87//84 88//84 90//84
f 85//85 88//85 87//85 104//85 106//85 103//85
f 84//1 82//1 78//1
f 85//86 86//86 88//86
f 87//87 90//87 89//87
f 88//1 86//1 84//1
f 83//88 84//88 86//88
f 89//80 92//82 91//89 154//89 155//89 153//89
f 92//1 90//1 88//1
f 82//90 84//90 83//90
f 91//76 94//78 93//91 112//91 114//91 111//91
f 96//1 94//1 92//1
f 80//92 82//92 81//92
f 93//93 96//93 95//93
f 78//1 92//1 84//1
f 78//94 80//94 79//94
f 96//95 97//95 108//95 109//95 107//95 95//95
f 98//96 78//96 77//96
f 78//1 98//1 96//1
f 98//97 77//97 97//97
f 77//98 99//98 102//98 100//98 79//98 81//98 83//98 85//98 103//98 105//98 104//98 87//98 89//98 153//98 156//98 154//98 91//98 111//98 113//98 112//98 93//98 95//98 107//98 110//98 108//98 97//98
f 102//99 99//99 101//99
f 101//100 100//100 102//100
f 106//101 104//101 105//101
f 105//102 103//102 106//102
f 120//1 118//1 116//1
f 110//103 107//103 109//103
f 109//104 108//104 110//104
f 111//91 114//91 112//91
f 112//105 113//105 111//105
f 116//106 117//106 138//106 139//106 137//106 115//106
f 131//107 132//107 134//107
f 118//108 119//108 117//108
f 134//109 136//109 135//109
f 129//110 130//111 132//112
f 120//113 121//113 119//113
f 130//1 126//1 122//1
f 127//114 128//115 130//116
f 121//117 124//117 123//117
f 116//1 134//1 130//1
f 125//118 126//118 128//118
f 123//119 126//119 125//119 142//119 144//119 141//119
f 122//1 120//1 116//1
f 123//120 124//120 126//120
f 125//121 128//121 127//121
f 126//1 124//1 122//1
f 121//122 122//122 124//122
f 127//114 130//116 129//123
f 130//1 128//1 126//1
f 120//124 122//124 121//124
f 129//110 132//112 131//125 150//125 152//125 149//125
f 134//1 132//1 130//1
f 118//126 120//126 119//126
f 131//127 134//127 133//127
f 116//1 130//1 122//1
f 116//128 118//128 117//128
f 134//129 135//129 146//129 147//129 145//129 133//129
f 136//130 116//130 115//130
f 116//1 136//1 134//1
f 136//131 115//131 135//131
f 115//132 137//132 140//132 138//132 117//132 119//132 121//132 123//132 141//132 143//132 142//132 125//132 127//132 129//132 149//132 151//132 150//132 131//132 133//132 145//132 148//132 146//132 135//132
f 140//133 137//133 139//133
f 139//134 138//134 140//134
f 144//135 142//135 143//135
f 143//136 141//136 144//136
f 148//137 145//137 147//137
f 147//138 146//138 148//138
f 152//139 150//139 151//139
f 151//140 149//140 152//140
f 156//141 153//141 155//141
f 155//142 154//142 156//142
f 162//1 160//1 158//1
f 158//143 159//143 180//143 181//143 179//143 157//143
f 173//144 174//144 176//144
f 160//145 161//145 159//145
f 176//146 178//146 177//146
f 171//147 172//148 174//149
f 162//150 163//150 161//150
f 172//1 168//1 164//1
f 169//151 170//152 172//153
f 163//154 166//154 165//154
f 158//1 176//1 172//1
f 167//155 168//155 170//155
f 165//156 168//156 167//156 184//156 186//156 183//156
f 164//1 162//1 158//1
f 165//157 166//157 168//157
f 167//158 170//158 169//158
f 168//1 166//1 164//1
f 163//159 164//159 166//159
f 169//151 172//153 171//160
f 172//1 170//1 168//1
f 162//161 164//161 163//161
f 171//147 174//149 173//162 192//162 194//162 191//162
f 176//1 174//1 172//1
f 160//163 162//163 161//163
f 173//164 176//164 175//164
f 158//1 172//1 164//1
f 158//165 160//165 159//165
f 176//166 177//166 188//166 189//166 187//166 175//166
f 178//167 158//167 157//167
f 158//1 178//1 176//1
f 178//168 157//168 177//168
f 157//169 179//169 182//169 180//169 159//169 161//169 163//169 165//169 183//169 185//169 184//169 167//169 169//169 171//169 191//169 193//169 192//169 173//169 175//169 187//169 190//169 188//169 177//169
f 182//170 179//170 181//170
f 181//171 180//171 182//171
f 186//172 184//172 185//172
f 185//173 183//173 186//173
f 190//174 187//174 189//174
f 189//175 188//175 190//175
f 194//176 192//176 193//176
f 193//177 191//177 194//177
f 200//178 198//179 196//1
f 196//180 197//180 218//180 219//180 217//180 195//180
f 211//181 212//181 214//181
f 198//182 199//182 197//182
f 214//183 216//183 215//183
f 209//184 210//185 212//186
f 200//187 201//187 199//187
f 210//1 206//1 202//1
f 207//188 208//189 210//190
f 201//191 204//191 203//191
f 196//1 214//1 210//1
f 205//192 206//192 208//192
f 203//193 206//193 205//193 222//193 224//193 221//193
f 202//1 200//178 196//1
f 203//194 204//194 206//194
f 205//195 208//195 207//195
f 206//1 204//196 202//1
f 201//197 202//197 204//197
f 207//188 210//190 209//198
f 210//1 208//199 206//1
f 200//200 202//200 201//200
f 209//184 212//186 211//201 230//201 232//201 229//201
f 214//1 212//1 210//1
f 198//202 200//202 199//202
f 211//203 214//203 213//203
f 196//1 210//1 202//1
f 196//204 198//204 197//204
f 214//205 215//205 226//205 227//205 225//205 213//205
f 216//206 196//206 195//206
f 196//1 216//1 214//1
f 216//207 195//207 215//207
f 195//208 217//208 220//208 218//208 197//208 199//208 201//208 203//208 221//208 223//208 222//208 205//208 207//208 209//208 229//208 231//208 230//208 211//208 213//208 225//208 228//208 226//208 215//208
f 220//209 217//209 219//209
f 219//210 218//210 220//210
f 224//211 222//211 223//211
f 223//212 221//212 224//212
f 228//213 225//213 227//213
f 227//214 226//214 228//214
f 232//215 230//215 231//215
f 231//216 229//216 232//216
