# Blender v3.0.0 OBJ File: 'Low-Poly_Models.blend'
# www.blender.org
mtllib base_world_terrain_rock_4.mtl
o Sphere
v -0.305420 1.467776 -0.679663
v 0.830184 0.295113 -1.597726
v 0.391295 1.098324 -1.060289
v 1.475106 0.287652 -1.130271
v 0.724061 -0.251967 -1.648129
v 0.391703 -0.642508 -1.490200
v 0.222243 -1.102771 -0.631048
v 1.707382 0.493023 -0.499545
v 1.439530 -0.330638 -1.111868
v 1.232589 -0.812636 -0.726092
v 0.890794 -1.043226 -0.181020
v 1.859837 -0.239688 -0.454813
v 1.518276 0.736169 -0.018724
v 1.944823 0.086088 -0.060390
v 1.710595 -0.566230 0.299927
v 1.720039 -0.213881 0.812835
v 1.289523 0.795473 0.598277
v 1.679766 0.341429 0.833884
v 0.892167 -0.754330 1.137349
v 1.083449 -0.032520 1.524731
v 1.077122 -0.369258 1.407480
v 0.612570 0.836550 1.334576
v 0.260983 1.095521 1.103643
v 0.179256 0.509440 1.709710
v -0.308113 0.931080 1.395995
v -0.446321 -0.263055 1.902267
v -0.384304 -0.604290 1.710902
v 0.456635 -1.085227 0.598697
v 0.122211 1.431884 -0.441590
v -0.019801 1.249491 0.424338
v -0.584694 0.526753 1.690436
v -0.996629 -0.772405 1.609082
v -1.421088 -0.498784 1.584939
v 0.090319 -1.153004 0.221695
v -1.301523 0.596230 1.201202
v -1.601624 0.177578 1.339572
v -1.343579 -0.815908 1.185784
v -0.681341 -0.991523 0.766574
v -1.859779 -0.347350 0.948948
v -1.358184 1.028206 -0.105018
v -1.915896 0.327556 -0.281360
v -1.812645 -0.612082 0.396978
v -1.935745 0.111165 -0.636897
v -1.709428 0.603331 -0.793601
v -1.243440 -0.815618 -0.602018
v -0.529836 1.416538 -0.122210
v -0.843446 1.303121 -0.777073
v -1.601334 0.174024 -1.160430
v -1.587300 -0.217080 -1.064877
v -0.830519 0.993868 -1.274545
v -0.395200 -0.271905 -1.690971
v -0.599392 -0.750592 -1.263704
v -0.633139 -1.083181 -0.445927
v -0.017933 0.870091 -1.495954
v -0.388772 0.285905 -1.752703
vn 0.1162 0.3369 -0.9344
vn 0.1253 0.0669 -0.9899
vn 0.3573 0.6464 -0.6742
vn 0.4493 0.6533 -0.6094
vn 0.4882 0.8391 -0.2400
vn 0.9069 0.1650 -0.3877
vn 0.8447 -0.0644 -0.5314
vn 0.7027 -0.6931 -0.1609
vn 0.8544 0.5140 0.0761
vn 0.8201 0.5664 0.0814
vn 0.9488 -0.3115 0.0528
vn 0.9616 0.0596 0.2680
vn 0.4127 -0.8925 0.1817
vn 0.6053 -0.6612 0.4431
vn 0.2889 0.9261 0.2425
vn 0.7488 0.0292 0.6622
vn 0.6893 -0.2497 0.6800
vn 0.3166 0.9449 0.0833
vn 0.4100 0.8505 0.3295
vn 0.4079 0.4005 0.8205
vn 0.2315 0.0547 0.9713
vn 0.1203 0.7467 0.6542
vn -0.0193 -0.9229 0.3845
vn -0.0069 0.5918 0.8061
vn -0.1356 0.9527 0.2720
vn 0.2018 -0.9268 0.3166
vn 0.0842 0.9722 0.2186
vn -0.3446 0.1864 0.9201
vn -0.0102 -0.4905 0.8714
vn -0.3476 0.9166 0.1972
vn -0.1580 -0.9851 0.0682
vn -0.8247 -0.0151 0.5653
vn -0.6518 -0.7040 0.2820
vn -0.3993 0.8652 0.3034
vn -0.3792 -0.9252 -0.0136
vn -0.9987 0.0088 0.0504
vn -0.8134 -0.5176 -0.2653
vn -0.8225 -0.1627 -0.5449
vn -0.8336 0.2223 -0.5058
vn -0.5564 0.6991 -0.4491
vn -0.4819 -0.6923 -0.5371
vn -0.0368 -0.9972 -0.0644
vn -0.4411 0.2968 -0.8470
vn -0.0417 0.7991 -0.5998
vn -0.1615 0.4812 -0.8616
vn -0.1030 -0.9199 -0.3784
vn 0.0400 -0.1104 -0.9931
vn 0.0422 -0.4052 -0.9133
vn -0.0123 -0.8804 -0.4741
vn 0.2755 0.8911 -0.3606
vn 0.2119 -0.8782 -0.4287
vn 0.2467 -0.9383 -0.2423
vn 0.5909 -0.0497 -0.8052
vn 0.4216 -0.6528 -0.6294
vn 0.1306 -0.9914 -0.0107
vn 0.5222 0.7354 -0.4318
vn 0.7087 -0.6006 -0.3702
vn 0.4893 0.8405 -0.2326
vn 0.9243 0.1715 -0.3408
vn 0.2613 -0.3821 0.8864
vn 0.5184 -0.8544 -0.0363
vn 0.4274 0.9012 0.0718
vn 0.9539 -0.2553 0.1578
vn 0.6935 0.6948 0.1903
vn 0.4159 -0.8854 0.2076
vn 0.6032 -0.6315 0.4872
vn 0.5420 0.7040 0.4590
vn 0.5417 0.4490 0.7106
vn -0.7785 0.5893 0.2158
vn 0.2536 -0.6342 0.7304
vn 0.1026 -0.8824 0.4591
vn 0.1180 0.6769 0.7265
vn -0.0186 0.2560 0.9665
vn -0.3569 0.6970 0.6219
vn -0.0476 -0.9740 0.2213
vn -0.2347 -0.2819 0.9303
vn -0.4347 0.5479 0.7148
vn -0.3853 0.2221 0.8957
vn -0.1823 0.8798 0.4390
vn -0.4945 -0.7248 0.4798
vn -0.1279 -0.9705 0.2045
vn -0.9301 0.3024 0.2083
vn -0.7620 -0.5709 0.3056
vn -0.3761 0.9264 0.0197
vn -0.2171 -0.9740 0.0650
vn -0.9853 -0.1708 -0.0022
vn -0.3933 -0.9187 -0.0369
vn -0.7844 0.6200 0.0176
vn -0.9147 0.3659 -0.1717
vn -0.7213 -0.6326 -0.2821
vn -0.4440 -0.1500 -0.8834
vn -0.6187 0.7694 -0.1591
vn -0.5738 0.4437 -0.6884
vn 0.0266 0.9944 0.1021
vn -0.2918 -0.8818 -0.3706
vn -0.4212 -0.4973 -0.7585
vn -0.1611 0.8363 -0.5241
vn -0.1051 -0.6369 -0.7638
vn 0.1325 0.8214 -0.5548
g Sphere_Sphere_None
usemtl None
s off
f 55//1 54//1 2//1
f 55//2 2//2 5//2
f 54//3 3//3 2//3
f 2//4 3//4 4//4
f 3//5 29//5 8//5
f 4//6 8//6 12//6
f 4//7 12//7 9//7
f 12//8 15//8 10//8
f 13//9 18//9 8//9
f 8//10 18//10 14//10
f 14//11 15//11 12//11
f 18//12 16//12 14//12
f 11//13 15//13 28//13
f 15//14 16//14 19//14
f 17//15 29//15 30//15
f 18//16 20//16 16//16
f 16//17 20//17 21//17
f 30//18 23//18 17//18
f 23//19 22//19 17//19
f 22//20 24//20 20//20
f 24//21 26//21 20//21
f 22//22 23//22 25//22
f 28//23 27//23 38//23
f 24//24 25//24 31//24
f 23//25 30//25 25//25
f 27//26 32//26 38//26
f 30//27 29//27 46//27
f 26//28 31//28 33//28
f 26//29 32//29 27//29
f 25//30 30//30 35//30
f 38//31 53//31 34//31
f 36//32 39//32 33//32
f 39//33 42//33 33//33
f 46//34 40//34 35//34
f 37//35 42//35 53//35
f 41//36 43//36 39//36
f 43//37 49//37 42//37
f 43//38 48//38 49//38
f 44//39 48//39 43//39
f 47//40 50//40 44//40
f 45//41 49//41 52//41
f 34//42 53//42 7//42
f 50//43 55//43 48//43
f 50//44 1//44 54//44
f 50//45 54//45 55//45
f 52//46 7//46 53//46
f 51//47 55//47 5//47
f 6//48 51//48 5//48
f 52//49 6//49 7//49
f 3//50 1//50 29//50
f 6//51 10//51 7//51
f 7//52 10//52 11//52
f 9//53 5//53 2//53 4//53
f 10//54 6//54 5//54 9//54
f 34//55 7//55 11//55 28//55
f 4//56 3//56 8//56
f 9//57 12//57 10//57
f 8//58 29//58 13//58
f 12//59 8//59 14//59
f 26//60 27//60 21//60 20//60
f 10//61 15//61 11//61
f 13//62 29//62 17//62
f 15//63 14//63 16//63
f 13//64 17//64 18//64
f 28//65 15//65 19//65
f 19//66 16//66 21//66
f 17//67 22//67 18//67
f 18//68 22//68 20//68
f 41//69 36//69 35//69 40//69
f 19//70 21//70 27//70
f 28//71 19//71 27//71
f 22//72 25//72 24//72
f 24//73 31//73 26//73
f 31//74 25//74 35//74
f 28//75 38//75 34//75
f 26//76 33//76 32//76
f 31//77 35//77 36//77
f 31//78 36//78 33//78
f 30//79 46//79 35//79
f 32//80 33//80 37//80
f 38//81 32//81 37//81
f 36//82 41//82 39//82
f 37//83 33//83 42//83
f 47//84 40//84 46//84 1//84
f 38//85 37//85 53//85
f 39//86 43//86 42//86
f 53//87 42//87 45//87
f 40//88 44//88 41//88
f 41//89 44//89 43//89
f 42//90 49//90 45//90
f 55//91 51//91 49//91 48//91
f 40//92 47//92 44//92
f 44//93 50//93 48//93
f 46//94 29//94 1//94
f 53//95 45//95 52//95
f 52//96 49//96 51//96
f 47//97 1//97 50//97
f 52//98 51//98 6//98
f 54//99 1//99 3//99
